<?xml version="1.0" encoding="utf-8"?>
<!-- Generator: Adobe Illustrator 27.0.0, SVG Export Plug-In . SVG Version: 6.00 Build 0)  -->
<svg version="1.1" id="Layer_1" xmlns="http://www.w3.org/2000/svg" xmlns:xlink="http://www.w3.org/1999/xlink" x="0px" y="0px"
	 viewBox="0 0 199.95 215.93" style="enable-background:new 0 0 199.95 215.93;" xml:space="preserve">
<style type="text/css">
	.st0{fill:#6CA73C;}
	.st1{fill:#0288C0;}
	.st2{fill:#5A9839;}
	.st3{fill:#0197CA;}
	.st4{fill:#FCBE2C;}
	.st5{fill:#FEC739;}
	.st6{fill:#78B140;}
	.st7{fill:#FDC232;}
	.st8{fill:#02A4D3;}
	.st9{fill:#FECC40;}
	.st10{fill:#0190C6;}
	.st11{fill:#88BE44;}
	.st12{fill:#FED24A;}
	.st13{fill:#30B9E1;}
	.st14{fill:#1CB1DC;}
	.st15{clip-path:url(#SVGID_00000016788294397149659830000006436240044482071209_);}
	.st16{fill:#FFFFFF;}
</style>
<g>
	<g>
		<path class="st0" d="M65.1,1.39c13.16,3.09,22.79,10.67,28.92,22.67c-15.97-0.54-28.43,5.83-37.35,19
			c-5.9,8.71-5.9,18.61-5.54,28.56c-10.93-0.82-20.03-5.28-27.2-13.59c1.63-1.19,1.89-3.08,2.18-4.81
			c3.6-21.41,15.03-37.13,34.31-47.2C62.44,4.95,64.79,4.18,65.1,1.39z"/>
		<path class="st1" d="M188.24,100.44c6.55,6.97,10.08,14.98,10.83,24.75c0.55,7.13,0.73,14.08-0.2,21.12
			c-0.93,6.98-4.16,10.32-11.2,11.02c-13.58,1.36-27.17,1.64-40.75-0.19c0.05-2.06,1.69-2.64,3.15-3.41
			c18.65-9.76,30.29-24.85,35.06-45.35C185.75,105.7,185.01,102.21,188.24,100.44z"/>
		<path class="st2" d="M65.1,1.39c-0.31,2.79-2.65,3.57-4.68,4.63c-19.28,10.07-30.7,25.8-34.31,47.2
			c-0.29,1.72-0.55,3.62-2.18,4.81c-7.67-7.39-10.91-16.78-11.58-27.05c-0.43-6.56-0.49-13.18,0.78-19.75
			c1.2-6.19,4.07-9.35,10.42-10.09C37.41-0.48,51.26-0.3,65.1,1.39z"/>
		<path class="st3" d="M157.89,86.86c6.93-0.81,13.03,1.64,18.95,4.81c-0.72,1.34-0.94,2.75-1.03,4.27
			c-1.51,23.9-13.22,40.64-35.29,50.27c-2.91,1.27-6.71,0.95-8.62,4.27c-6.59-4.13-11.28-9.87-14.44-16.9
			c1.77-0.37,3.52-0.93,5.31-1.09c17.26-1.48,31.82-14.08,34.8-30.81C158.43,96.87,157.83,91.8,157.89,86.86z"/>
		<path class="st4" d="M148.91,1.26c10.31-1.69,20.63-1.6,30.98-0.23c2.74,0.36,5.6-0.16,8.36,0.14c5.84,0.65,9.46,3.58,10.35,9.01
			c1.63,9.96,2.11,19.98-0.39,29.93c-1.62,6.47-4.88,12.03-9.3,16.96c-0.69-2.02-1.59-3.99-2.05-6.07
			c-4.63-20.68-16.67-35.79-34.86-46.3C150.55,3.89,148.92,3.32,148.91,1.26z"/>
		<path class="st5" d="M173.97,68.21c-5.38,2.68-11.02,4.06-17.07,3.41c-0.3-4.61,0.57-9.25-0.54-13.83
			c-4.55-18.81-18.99-30.01-39.77-30.84c2.42-6.86,6.69-12.37,12.35-16.87c0.4,2.71,2.85,2.44,4.59,2.94
			c8.23,2.38,15.56,6.3,21.91,12.06C168.21,36.65,173.94,51.21,173.97,68.21z"/>
		<path class="st6" d="M51.13,71.61c-0.36-9.95-0.35-19.86,5.54-28.56c8.92-13.17,21.38-19.54,37.35-19
			c2.85,4.32,4.31,9.15,4.07,14.24c-0.1,2.04,0.99,3.71,0.76,5.63c-1.3-0.17-2.61-0.26-3.89-0.51c-8.09-1.61-14.99,0.4-20.5,6.64
			c-5.71,6.46-5.83,13.82-3.39,21.57C64.43,71.61,57.78,71.61,51.13,71.61z"/>
		<path class="st7" d="M173.97,68.21c-0.03-17-5.76-31.56-18.53-43.14c-6.35-5.76-13.68-9.68-21.91-12.06
			c-1.74-0.5-4.19-0.24-4.59-2.94c5.79-4.89,12.26-8.25,19.97-8.81c0.01,2.05,1.64,2.63,3.08,3.46
			c18.19,10.51,30.23,25.62,34.86,46.3c0.46,2.07,1.36,4.05,2.05,6.07C185.11,62.38,179.65,65.45,173.97,68.21z"/>
		<path class="st8" d="M157.89,86.86c-0.07,4.95,0.54,10.02-0.32,14.82c-2.99,16.73-17.55,29.32-34.8,30.81
			c-1.79,0.15-3.54,0.71-5.31,1.09c-2.96-5.27-3.93-10.99-3.84-16.95c6.96-0.03,13.86,0.08,19.72-4.86
			c7.99-6.74,10.21-15.03,7.61-24.89C146.6,86.87,152.25,86.86,157.89,86.86z"/>
		<path class="st9" d="M116.59,26.95c20.78,0.83,35.21,12.03,39.77,30.84c1.11,4.58,0.24,9.23,0.54,13.83c-5.32,0-10.64,0-15.95,0
			c2.39-8.45,0.51-15.56-5.67-22.06c-6.19-6.51-13.77-6.95-21.79-6.65C113.44,37.38,114,31.97,116.59,26.95z"/>
		<path class="st10" d="M131.9,150.48c1.9-3.32,5.71-3,8.62-4.27c22.08-9.63,33.78-26.37,35.29-50.27c0.1-1.52,0.32-2.94,1.03-4.27
			c4.16,2.45,8.57,4.59,11.39,8.78c-3.23,1.78-2.48,5.27-3.11,7.96c-4.77,20.5-16.41,35.58-35.06,45.35
			c-1.46,0.77-3.1,1.35-3.15,3.41C141.54,155.76,136.34,153.96,131.9,150.48z"/>
		<path class="st11" d="M71.08,71.61c-2.44-7.75-2.32-15.11,3.39-21.57c5.51-6.24,12.41-8.25,20.5-6.64
			c1.28,0.26,2.59,0.35,3.89,0.51c0.56,5.8,0.01,11.55-0.89,17.26C96.9,67.94,92.7,71.26,84.48,71.7
			C80.03,71.94,75.55,71.66,71.08,71.61z"/>
		<path class="st12" d="M113.48,42.91c8.03-0.3,15.6,0.14,21.79,6.65c6.18,6.5,8.06,13.61,5.67,22.06
			c-6.07,0.03-12.12,0.64-18.2-0.65c-5.11-1.09-7.92-4.22-8.56-8.94C113.32,55.72,112.52,49.33,113.48,42.91z"/>
		<path class="st13" d="M113.43,110.6c-0.73-4.78,0.14-9.52,0.76-14.2c0.8-6.05,5.06-9.19,12.39-9.64c2.78-0.17,5.59,0.05,8.38,0.09
			c0.16,0.96,0.16,2,0.52,2.88c3.3,8.13-2.86,17.67-10.26,20.19C121.34,111.24,117.35,110.22,113.43,110.6z"/>
		<path class="st14" d="M113.43,110.6c3.92-0.38,7.91,0.64,11.79-0.68c7.4-2.52,13.56-12.06,10.26-20.19
			c-0.36-0.89-0.36-1.92-0.52-2.88c2,0.01,4,0.02,6,0.03c2.6,9.86,0.37,18.15-7.61,24.89c-5.86,4.94-12.75,4.83-19.72,4.86
			C112.91,114.63,113.14,112.62,113.43,110.6z"/>
	</g>
	<g>
		<defs>
			<rect id="SVGID_1_" y="84.64" width="102" height="131.29"/>
		</defs>
		<clipPath id="SVGID_00000031195161415711946590000005682093847417579190_">
			<use xlink:href="#SVGID_1_"  style="overflow:visible;"/>
		</clipPath>
		<g style="clip-path:url(#SVGID_00000031195161415711946590000005682093847417579190_);">
			<path class="st16" d="M98.21,181.28c0,0,0-21.57,0-40.78s0.49-45.36,0.49-47.73c0-2.37,0.09-4.13-0.43-4.59
				c-0.5-0.46-3.1-0.54-11.04-0.54c-11.16,0-21.74,2.71-23.91,12.06c-0.57,2.49-0.68,4.49-0.68,7.78s0,57.28,0,63.08
				s0.13,9.33-0.59,10.67c-0.88,1.62-2.25,4.36-11.41,4.36c-2.53,0-9.42-1.39-11.68-9.71c-0.7-2.55-0.71-6-0.71-10.03
				s2.42-38.99,2.42-43.8c0-4.8-0.3-11.03-0.84-14.88c-0.51-3.85-1.25-6.86-1.98-9.71c-0.68-2.76-2.05-5.79-4.63-8.36
				c-1.3-1.28-2.93-2.41-4.83-3.18c-1.89-0.78-7.48-1.31-11.39-0.11c-3.41,1.06-7.5,3.48-11.06,5.81c-2.2,1.43-4.72,3.11-4.94,4.14
				c-0.22,1.03,0.46,1.88,1.41,5.55c0.94,3.66,2.2,8.99,2.21,17.49c0,0-2.55,43.3-2.55,49.5c0,6.2,0.49,12.88,1.67,18.45
				c0.88,4.16,2.17,8.01,4.11,11.51c1.45,2.62,3.73,5.66,5.92,7.76c3.29,3.12,7.42,5.52,12.31,7.13c4.89,1.59,11.13,2.78,17.32,2.78
				c6.2,0,11.91-1.09,17.36-2.92c3.64-1.22,7.67-3.01,11.72-5.52c0.46,0.41,0.96,0.79,1.49,1.16c2.27,1.51,4.29,2.54,8.63,2.54
				c4.35,0,8.98-2.78,12.32-4.97c2.84-1.87,5.87-4.58,6.09-5.51c0.21-0.93,0.06-1.41-0.42-2.89
				C99.54,194.54,98.21,188.64,98.21,181.28"/>
		</g>
	</g>
</g>
</svg>
